<?xml version="1.0" encoding="UTF-8" standalone="no"?>
<svg
   xmlns:dc="http://purl.org/dc/elements/1.1/"
   xmlns:cc="http://creativecommons.org/ns#"
   xmlns:rdf="http://www.w3.org/1999/02/22-rdf-syntax-ns#"
   xmlns:svg="http://www.w3.org/2000/svg"
   xmlns="http://www.w3.org/2000/svg"
   xmlns:sodipodi="http://sodipodi.sourceforge.net/DTD/sodipodi-0.dtd"
   xmlns:inkscape="http://www.inkscape.org/namespaces/inkscape"
   version="1.1"
   width="24"
   height="24"
   viewBox="0 0 24 24"
   id="svg964"
   sodipodi:docname="collab.svg"
   inkscape:version="0.92.3 (2405546, 2018-03-11)">
  <metadata
     id="metadata970">
    <rdf:RDF>
      <cc:Work
         rdf:about="">
        <dc:format>image/svg+xml</dc:format>
        <dc:type
           rdf:resource="http://purl.org/dc/dcmitype/StillImage" />
      </cc:Work>
    </rdf:RDF>
  </metadata>
  <defs
     id="defs968" />
  <sodipodi:namedview
     pagecolor="#ffffff"
     bordercolor="#666666"
     borderopacity="1"
     objecttolerance="10"
     gridtolerance="10"
     guidetolerance="10"
     inkscape:pageopacity="0"
     inkscape:pageshadow="2"
     inkscape:window-width="1600"
     inkscape:window-height="847"
     id="namedview966"
     showgrid="false"
     inkscape:zoom="20.476634"
     inkscape:cx="9.3628478"
     inkscape:cy="10.046554"
     inkscape:window-x="-8"
     inkscape:window-y="-8"
     inkscape:window-maximized="1"
     inkscape:current-layer="svg964" />
  <g
     id="g1096"
     transform="matrix(0.70936735,0,0,0.70936735,1.0048061,1.1873201)"
     style="fill:#ffffff">
    <path
       id="path1065"
       d="m 8,8 c 0,4.682 3.894,5.148 5.295,4.926 1.401,-0.222 5.062,-0.803 5.062,-0.803 l 6.066,5.472 -11.68,8.958 L 3.606,17 H 2.016 L 2,5 H 12.5 C 12.5,5 10.44,5.717 9.758,5.968 9.075,6.218 8,6.542 8,8 Z"
       inkscape:connector-curvature="0"
       style="fill:#ffffff" />
    <circle
       id="circle1067"
       r="2"
       cy="19"
       cx="23"
       style="fill:#ffffff" />
    <path
       id="path1069"
       d="M 15,8.5 C 15,9.881 13.881,11 12.5,11 11.119,11 10,9.881 10,8.5 V 8 h 3.146 z"
       inkscape:connector-curvature="0"
       style="fill:#ffffff" />
    <circle
       id="circle1071"
       r="2"
       cy="7"
       cx="19"
       style="fill:#ffffff" />
    <circle
       id="circle1073"
       r="2"
       cy="21"
       cx="20"
       style="fill:#ffffff" />
    <circle
       id="circle1075"
       r="2"
       cy="23"
       cx="17"
       style="fill:#ffffff" />
    <circle
       id="circle1077"
       r="2"
       cy="25"
       cx="14"
       style="fill:#ffffff" />
    <path
       id="path1079"
       d="M 29,19 V 7 L 25,8 19.856,5.192 18.478,5.069 10,8 12.753,10.987 19,9.996 c 0,0 5.25,4.699 6.167,5.616 0.88,0.88 1.75,1.543 1.819,3.388 z"
       inkscape:connector-curvature="0"
       style="fill:#ffffff" />
  </g>
</svg>
