<?xml version="1.0" encoding="UTF-8" standalone="no"?>
<!-- Created with Inkscape (http://www.inkscape.org/) -->

<svg
   xmlns:dc="http://purl.org/dc/elements/1.1/"
   xmlns:cc="http://creativecommons.org/ns#"
   xmlns:rdf="http://www.w3.org/1999/02/22-rdf-syntax-ns#"
   xmlns:svg="http://www.w3.org/2000/svg"
   xmlns="http://www.w3.org/2000/svg"
   xmlns:sodipodi="http://sodipodi.sourceforge.net/DTD/sodipodi-0.dtd"
   xmlns:inkscape="http://www.inkscape.org/namespaces/inkscape"
   width="512"
   height="512"
   viewBox="0 0 135.46666 135.46667"
   version="1.1"
   id="svg24"
   sodipodi:docname="FTP.svg"
   inkscape:version="0.92.3 (2405546, 2018-03-11)">
  <defs
     id="defs18" />
  <sodipodi:namedview
     id="base"
     pagecolor="#ffffff"
     bordercolor="#000000"
     borderopacity="1"
     inkscape:pageopacity="0.0"
     inkscape:pageshadow="2"
     inkscape:zoom="0.7"
     inkscape:cx="-58.565453"
     inkscape:cy="268.0016"
     inkscape:document-units="px"
     inkscape:current-layer="g1901"
     showgrid="false"
     inkscape:showpageshadow="false"
     borderlayer="true"
     inkscape:window-width="1600"
     inkscape:window-height="847"
     inkscape:window-x="-8"
     inkscape:window-y="-8"
     inkscape:window-maximized="1"
     units="px" />
  <metadata
     id="metadata21">
    <rdf:RDF>
      <cc:Work
         rdf:about="">
        <dc:format>image/svg+xml</dc:format>
        <dc:type
           rdf:resource="http://purl.org/dc/dcmitype/StillImage" />
        <dc:title />
      </cc:Work>
    </rdf:RDF>
  </metadata>
  <g
     inkscape:label="Camada 1"
     inkscape:groupmode="layer"
     id="layer1"
     transform="translate(0,-161.53331)">
    <g
       id="g1901"
       transform="matrix(1.520463,-0.40740684,0.40740684,1.520463,-118.11647,-96.525603)">
      <path
         id="rect1716"
         transform="matrix(0.26458333,0,0,0.26458333,0,161.53331)"
         d="m 100.57227,132.57227 v 28.04296 a 12.857144,12.857144 0 0 1 1,-0.043 12.857144,12.857144 0 0 1 12.85546,12.85546 12.857144,12.857144 0 0 1 -12.85546,12.85743 12.857144,12.857144 0 0 1 -1,-0.0508 v 17.84179 a 12.857144,12.857144 0 0 1 1.57031,-0.11133 12.857144,12.857144 0 0 1 12.85742,12.85743 12.857144,12.857144 0 0 1 -12.85742,12.85546 12.857144,12.857144 0 0 1 -1.57031,-0.10546 v 17.79101 a 12.857144,12.857144 0 0 1 0.14257,-0.006 12.857144,12.857144 0 0 1 12.85743,12.85742 12.857144,12.857144 0 0 1 -12.85743,12.85743 12.857144,12.857144 0 0 1 -0.14257,-0.008 v 17.71485 a 12.857144,12.857144 0 0 1 0.85546,-0.0293 12.857144,12.857144 0 0 1 12.85743,12.85742 12.857144,12.857144 0 0 1 -12.85743,12.85742 12.857144,12.857144 0 0 1 -0.85546,-0.043 v 17.75195 a 12.857144,12.857144 0 0 1 0.85546,-0.0312 12.857144,12.857144 0 0 1 12.85743,12.85742 12.857144,12.857144 0 0 1 -12.85743,12.85742 12.857144,12.857144 0 0 1 -0.85546,-0.043 v 28.75782 h 28.36328 a 12.857144,12.857144 0 0 1 -0.006,-0.14454 12.857144,12.857144 0 0 1 12.85742,-12.85546 12.857144,12.857144 0 0 1 12.85742,12.85546 12.857144,12.857144 0 0 1 -0.008,0.14454 h 17.71094 a 12.857144,12.857144 0 0 1 -0.0254,-0.71485 A 12.857144,12.857144 0 0 1 185.17969,375 a 12.857144,12.857144 0 0 1 12.85742,12.85742 12.857144,12.857144 0 0 1 -0.0352,0.71485 H 215.75 a 12.857144,12.857144 0 0 1 12.82227,-12.14454 12.857144,12.857144 0 0 1 12.83203,12.14454 h 17.70312 a 12.857144,12.857144 0 0 1 12.85742,-12.85743 12.857144,12.857144 0 0 1 12.85743,12.85743 H 302.5 a 12.857144,12.857144 0 0 1 12.85742,-12.85743 12.857144,12.857144 0 0 1 12.85742,12.85743 h 28.35743 v -23.38868 a 12.857144,12.857144 0 0 1 -0.85743,0.0312 12.857144,12.857144 0 0 1 -12.85742,-12.85742 12.857144,12.857144 0 0 1 12.85742,-12.85742 12.857144,12.857144 0 0 1 0.85743,0.043 V 321.791 a 12.857144,12.857144 0 0 1 -0.85743,0.0312 12.857144,12.857144 0 0 1 -12.85742,-12.85743 12.857144,12.857144 0 0 1 12.85742,-12.85742 12.857144,12.857144 0 0 1 0.85743,0.043 V 278.31641 A 12.857144,12.857144 0 0 1 355,278.42773 12.857144,12.857144 0 0 1 342.14258,265.57227 12.857144,12.857144 0 0 1 355,252.71484 a 12.857144,12.857144 0 0 1 1.57227,0.10743 V 235.0293 a 12.857144,12.857144 0 0 1 -0.14454,0.006 12.857144,12.857144 0 0 1 -12.85546,-12.85743 12.857144,12.857144 0 0 1 12.85546,-12.85546 12.857144,12.857144 0 0 1 0.14454,0.008 v -17.71289 a 12.857144,12.857144 0 0 1 -0.71485,0.0254 A 12.857144,12.857144 0 0 1 343,178.78516 a 12.857144,12.857144 0 0 1 12.85742,-12.85743 12.857144,12.857144 0 0 1 0.71485,0.0352 v -33.39062 h -28.36329 a 12.857144,12.857144 0 0 1 0.006,0.19531 A 12.857144,12.857144 0 0 1 315.35742,145.625 12.857144,12.857144 0 0 1 302.5,132.76758 a 12.857144,12.857144 0 0 1 0.01,-0.19531 h -17.69336 a 12.857144,12.857144 0 0 1 0.006,0.19531 12.857144,12.857144 0 0 1 -12.85743,12.85742 12.857144,12.857144 0 0 1 -12.85742,-12.85742 12.857144,12.857144 0 0 1 0.01,-0.19531 h -17.72071 a 12.857144,12.857144 0 0 1 0.0332,0.91015 12.857144,12.857144 0 0 1 -12.85742,12.85547 12.857144,12.857144 0 0 1 -12.85743,-12.85547 12.857144,12.857144 0 0 1 0.0449,-0.91015 h -17.74805 a 12.857144,12.857144 0 0 1 -12.83203,12.33789 12.857144,12.857144 0 0 1 -12.83789,-12.33789 h -17.69922 a 12.857144,12.857144 0 0 1 0.002,0.0527 12.857144,12.857144 0 0 1 -12.85742,12.85742 12.857144,12.857144 0 0 1 -12.85742,-12.85742 12.857144,12.857144 0 0 1 0.002,-0.0527 z"
         style="opacity:1;fill:#ffffff;fill-opacity:1;stroke:none;stroke-width:10;stroke-linecap:round;stroke-miterlimit:4;stroke-dasharray:none;stroke-dashoffset:0;stroke-opacity:1"
         inkscape:connector-curvature="0" />
      <g
         aria-label="FTP"
         style="font-style:normal;font-variant:normal;font-weight:normal;font-stretch:normal;font-size:24.19535637px;line-height:1.25;font-family:'Brandon Grotesque';-inkscape-font-specification:'Brandon Grotesque';letter-spacing:0px;word-spacing:0px;fill:#01aaed;fill-opacity:1;stroke:none;stroke-width:1.29617989"
         id="text1896">
        <path
           d="m 41.64921,238.48505 c 0,0.24195 0.193562,0.45971 0.459711,0.45971 h 2.855052 c 0.241954,0 0.459712,-0.21776 0.459712,-0.45971 v -5.87947 h 5.516541 c 0.241954,0 0.459712,-0.21776 0.459712,-0.45971 v -2.6373 c 0,-0.24195 -0.217758,-0.45971 -0.459712,-0.45971 h -5.516541 v -3.48413 h 6.702114 c 0.266149,0 0.459712,-0.21776 0.459712,-0.45971 v -2.63729 c 0,-0.24196 -0.193563,-0.45972 -0.459712,-0.45972 H 42.108921 c -0.266149,0 -0.459711,0.21776 -0.459711,0.45972 z"
           style="font-style:normal;font-variant:normal;font-weight:500;font-stretch:normal;font-family:'Brandon Grotesque';-inkscape-font-specification:'Brandon Grotesque Medium';fill:#01aaed;fill-opacity:1;stroke-width:1.29617989"
           id="path998" />
        <path
           d="m 57.43668,238.48505 c 0,0.24195 0.217758,0.45971 0.459712,0.45971 h 2.903442 c 0.241954,0 0.459712,-0.21776 0.459712,-0.45971 v -12.92032 h 3.459936 c 0.266149,0 0.459712,-0.21776 0.459712,-0.45971 v -2.63729 c 0,-0.24196 -0.193563,-0.45972 -0.459712,-0.45972 H 53.976744 c -0.266149,0 -0.459712,0.21776 -0.459712,0.45972 v 2.63729 c 0,0.24195 0.193563,0.45971 0.459712,0.45971 h 3.459936 z"
           style="font-style:normal;font-variant:normal;font-weight:500;font-stretch:normal;font-family:'Brandon Grotesque';-inkscape-font-specification:'Brandon Grotesque Medium';fill:#01aaed;fill-opacity:1;stroke-width:1.29617989"
           id="path1000" />
        <path
           d="m 67.593057,238.48505 c 0,0.24195 0.193563,0.45971 0.459712,0.45971 h 2.855052 c 0.241954,0 0.459712,-0.21776 0.459712,-0.45971 v -5.68591 h 2.540512 c 2.951834,0 5.395565,-2.44373 5.395565,-5.44395 0,-2.92764 -2.443731,-5.34718 -5.41976,-5.34718 h -5.831081 c -0.266149,0 -0.459712,0.21776 -0.459712,0.45972 z m 3.774476,-9.21843 v -3.70189 h 2.298559 c 1.0404,0 1.911433,0.77425 1.911433,1.79046 0,1.08879 -0.871033,1.91143 -1.911433,1.91143 z"
           style="font-style:normal;font-variant:normal;font-weight:500;font-stretch:normal;font-family:'Brandon Grotesque';-inkscape-font-specification:'Brandon Grotesque Medium';fill:#01aaed;fill-opacity:1;stroke-width:1.29617989"
           id="path1002" />
      </g>
      <g
         aria-label="SFTP"
         style="font-style:normal;font-variant:normal;font-weight:normal;font-stretch:normal;font-size:24.19535637px;line-height:1.25;font-family:'Brandon Grotesque';-inkscape-font-specification:'Brandon Grotesque';letter-spacing:0px;word-spacing:0px;fill:#01aaed;fill-opacity:1;stroke:none;stroke-width:1.29617989"
         id="text1896-2">
        <path
           d="m 41.655984,220.12745 c 0.123711,0.12371 0.51098,0.41416 1.210216,0.41416 0.790674,0 1.269382,-0.55939 1.269382,-1.1134 0,-0.73151 -0.666964,-1.05961 -1.086505,-1.22635 -0.42492,-0.17212 -0.586283,-0.32272 -0.586283,-0.52174 0,-0.14522 0.145226,-0.27431 0.338861,-0.27431 0.328103,0 0.720751,0.29583 0.769159,0.32272 0.04841,0.0376 0.145226,-0.0108 0.182878,-0.0699 l 0.274315,-0.41417 c 0.02152,-0.0376 0.03227,-0.13446 -0.03227,-0.17212 -0.161362,-0.11833 -0.591661,-0.4034 -1.15105,-0.4034 -0.828326,0 -1.242489,0.53787 -1.242489,1.07037 0,0.64545 0.580904,1.00582 1.043476,1.1887 0.365754,0.14523 0.55401,0.31735 0.55401,0.54325 0,0.18826 -0.155984,0.32273 -0.371133,0.32273 -0.354997,0 -0.742266,-0.28508 -0.763781,-0.29583 -0.03765,-0.0269 -0.139847,-0.0377 -0.182877,0.0323 l -0.252801,0.44643 c -0.04303,0.0753 -0.02689,0.0968 0.02689,0.15061 z"
           style="font-style:normal;font-variant:normal;font-weight:500;font-stretch:normal;font-size:5.37873793px;font-family:'Brandon Grotesque';-inkscape-font-specification:'Brandon Grotesque Medium';fill:#01aaed;fill-opacity:1;stroke-width:1.29617989"
           id="path1005" />
        <path
           d="m 44.796242,220.38563 c 0,0.0538 0.04303,0.10219 0.102196,0.10219 h 0.634691 c 0.05379,0 0.102196,-0.0484 0.102196,-0.10219 v -1.30704 h 1.226353 c 0.05379,0 0.102196,-0.0484 0.102196,-0.10219 v -0.58628 c 0,-0.0538 -0.04841,-0.1022 -0.102196,-0.1022 h -1.226353 v -0.77454 h 1.489911 c 0.05917,0 0.102196,-0.0484 0.102196,-0.10219 v -0.58629 c 0,-0.0538 -0.04303,-0.10219 -0.102196,-0.10219 h -2.226798 c -0.05917,0 -0.102196,0.0484 -0.102196,0.10219 z"
           style="font-style:normal;font-variant:normal;font-weight:500;font-stretch:normal;font-size:5.37873793px;font-family:'Brandon Grotesque';-inkscape-font-specification:'Brandon Grotesque Medium';fill:#01aaed;fill-opacity:1;stroke-width:1.29617989"
           id="path1007" />
        <path
           d="m 48.305869,220.38563 c 0,0.0538 0.04841,0.10219 0.102196,0.10219 h 0.645448 c 0.05379,0 0.102196,-0.0484 0.102196,-0.10219 v -2.87225 h 0.76916 c 0.05917,0 0.102196,-0.0484 0.102196,-0.10219 v -0.58629 c 0,-0.0538 -0.04303,-0.10219 -0.102196,-0.10219 h -2.38816 c -0.05917,0 -0.102196,0.0484 -0.102196,0.10219 v 0.58629 c 0,0.0538 0.04303,0.10219 0.102196,0.10219 h 0.76916 z"
           style="font-style:normal;font-variant:normal;font-weight:500;font-stretch:normal;font-size:5.37873793px;font-family:'Brandon Grotesque';-inkscape-font-specification:'Brandon Grotesque Medium';fill:#01aaed;fill-opacity:1;stroke-width:1.29617989"
           id="path1009" />
        <path
           d="m 50.563678,220.38563 c 0,0.0538 0.04303,0.10219 0.102196,0.10219 h 0.634691 c 0.05379,0 0.102196,-0.0484 0.102196,-0.10219 v -1.26401 h 0.564768 c 0.656206,0 1.199458,-0.54325 1.199458,-1.21021 0,-0.65083 -0.543252,-1.1887 -1.204837,-1.1887 h -1.296276 c -0.05917,0 -0.102196,0.0484 -0.102196,0.10219 z m 0.839083,-2.0493 v -0.82295 h 0.51098 c 0.231286,0 0.424921,0.17212 0.424921,0.39803 0,0.24204 -0.193635,0.42492 -0.424921,0.42492 z"
           style="font-style:normal;font-variant:normal;font-weight:500;font-stretch:normal;font-size:5.37873793px;font-family:'Brandon Grotesque';-inkscape-font-specification:'Brandon Grotesque Medium';fill:#01aaed;fill-opacity:1;stroke-width:1.29617989"
           id="path1011" />
      </g>
    </g>
  </g>
</svg>
