<?xml version="1.0" encoding="UTF-8" standalone="no"?>
<!-- Created with Inkscape (http://www.inkscape.org/) -->

<svg
   xmlns:dc="http://purl.org/dc/elements/1.1/"
   xmlns:cc="http://creativecommons.org/ns#"
   xmlns:rdf="http://www.w3.org/1999/02/22-rdf-syntax-ns#"
   xmlns:svg="http://www.w3.org/2000/svg"
   xmlns="http://www.w3.org/2000/svg"
   xmlns:sodipodi="http://sodipodi.sourceforge.net/DTD/sodipodi-0.dtd"
   xmlns:inkscape="http://www.inkscape.org/namespaces/inkscape"
   width="512"
   height="512"
   viewBox="0 0 135.46666 135.46667"
   version="1.1"
   id="svg24"
   sodipodi:docname="FTP.svg"
   inkscape:version="0.92.3 (2405546, 2018-03-11)">
  <defs
     id="defs18" />
  <sodipodi:namedview
     id="base"
     pagecolor="#ffffff"
     bordercolor="#000000"
     borderopacity="1"
     inkscape:pageopacity="0.0"
     inkscape:pageshadow="2"
     inkscape:zoom="0.7"
     inkscape:cx="-58.565453"
     inkscape:cy="268.0016"
     inkscape:document-units="px"
     inkscape:current-layer="g1901"
     showgrid="false"
     inkscape:showpageshadow="false"
     borderlayer="true"
     inkscape:window-width="1600"
     inkscape:window-height="847"
     inkscape:window-x="-8"
     inkscape:window-y="-8"
     inkscape:window-maximized="1"
     units="px" />
  <metadata
     id="metadata21">
    <rdf:RDF>
      <cc:Work
         rdf:about="">
        <dc:format>image/svg+xml</dc:format>
        <dc:type
           rdf:resource="http://purl.org/dc/dcmitype/StillImage" />
        <dc:title />
      </cc:Work>
    </rdf:RDF>
  </metadata>
  <g
     inkscape:label="Camada 1"
     inkscape:groupmode="layer"
     id="layer1"
     transform="translate(0,-161.53331)">
    <g
       id="g1901"
       transform="matrix(1.520463,-0.40740684,0.40740684,1.520463,-118.11647,-96.525603)">
      <path
         id="rect1716"
         transform="matrix(0.26458333,0,0,0.26458333,0,161.53331)"
         d="m 100.57227,132.57227 v 28.04296 a 12.857144,12.857144 0 0 1 1,-0.043 12.857144,12.857144 0 0 1 12.85546,12.85546 12.857144,12.857144 0 0 1 -12.85546,12.85743 12.857144,12.857144 0 0 1 -1,-0.0508 v 17.84179 a 12.857144,12.857144 0 0 1 1.57031,-0.11133 12.857144,12.857144 0 0 1 12.85742,12.85743 12.857144,12.857144 0 0 1 -12.85742,12.85546 12.857144,12.857144 0 0 1 -1.57031,-0.10546 v 17.79101 a 12.857144,12.857144 0 0 1 0.14257,-0.006 12.857144,12.857144 0 0 1 12.85743,12.85742 12.857144,12.857144 0 0 1 -12.85743,12.85743 12.857144,12.857144 0 0 1 -0.14257,-0.008 v 17.71485 a 12.857144,12.857144 0 0 1 0.85546,-0.0293 12.857144,12.857144 0 0 1 12.85743,12.85742 12.857144,12.857144 0 0 1 -12.85743,12.85742 12.857144,12.857144 0 0 1 -0.85546,-0.043 v 17.75195 a 12.857144,12.857144 0 0 1 0.85546,-0.0312 12.857144,12.857144 0 0 1 12.85743,12.85742 12.857144,12.857144 0 0 1 -12.85743,12.85742 12.857144,12.857144 0 0 1 -0.85546,-0.043 v 28.75782 h 28.36328 a 12.857144,12.857144 0 0 1 -0.006,-0.14454 12.857144,12.857144 0 0 1 12.85742,-12.85546 12.857144,12.857144 0 0 1 12.85742,12.85546 12.857144,12.857144 0 0 1 -0.008,0.14454 h 17.71094 a 12.857144,12.857144 0 0 1 -0.0254,-0.71485 A 12.857144,12.857144 0 0 1 185.17969,375 a 12.857144,12.857144 0 0 1 12.85742,12.85742 12.857144,12.857144 0 0 1 -0.0352,0.71485 H 215.75 a 12.857144,12.857144 0 0 1 12.82227,-12.14454 12.857144,12.857144 0 0 1 12.83203,12.14454 h 17.70312 a 12.857144,12.857144 0 0 1 12.85742,-12.85743 12.857144,12.857144 0 0 1 12.85743,12.85743 H 302.5 a 12.857144,12.857144 0 0 1 12.85742,-12.85743 12.857144,12.857144 0 0 1 12.85742,12.85743 h 28.35743 v -23.38868 a 12.857144,12.857144 0 0 1 -0.85743,0.0312 12.857144,12.857144 0 0 1 -12.85742,-12.85742 12.857144,12.857144 0 0 1 12.85742,-12.85742 12.857144,12.857144 0 0 1 0.85743,0.043 V 321.791 a 12.857144,12.857144 0 0 1 -0.85743,0.0312 12.857144,12.857144 0 0 1 -12.85742,-12.85743 12.857144,12.857144 0 0 1 12.85742,-12.85742 12.857144,12.857144 0 0 1 0.85743,0.043 V 278.31641 A 12.857144,12.857144 0 0 1 355,278.42773 12.857144,12.857144 0 0 1 342.14258,265.57227 12.857144,12.857144 0 0 1 355,252.71484 a 12.857144,12.857144 0 0 1 1.57227,0.10743 V 235.0293 a 12.857144,12.857144 0 0 1 -0.14454,0.006 12.857144,12.857144 0 0 1 -12.85546,-12.85743 12.857144,12.857144 0 0 1 12.85546,-12.85546 12.857144,12.857144 0 0 1 0.14454,0.008 v -17.71289 a 12.857144,12.857144 0 0 1 -0.71485,0.0254 A 12.857144,12.857144 0 0 1 343,178.78516 a 12.857144,12.857144 0 0 1 12.85742,-12.85743 12.857144,12.857144 0 0 1 0.71485,0.0352 v -33.39062 h -28.36329 a 12.857144,12.857144 0 0 1 0.006,0.19531 A 12.857144,12.857144 0 0 1 315.35742,145.625 12.857144,12.857144 0 0 1 302.5,132.76758 a 12.857144,12.857144 0 0 1 0.01,-0.19531 h -17.69336 a 12.857144,12.857144 0 0 1 0.006,0.19531 12.857144,12.857144 0 0 1 -12.85743,12.85742 12.857144,12.857144 0 0 1 -12.85742,-12.85742 12.857144,12.857144 0 0 1 0.01,-0.19531 h -17.72071 a 12.857144,12.857144 0 0 1 0.0332,0.91015 12.857144,12.857144 0 0 1 -12.85742,12.85547 12.857144,12.857144 0 0 1 -12.85743,-12.85547 12.857144,12.857144 0 0 1 0.0449,-0.91015 h -17.74805 a 12.857144,12.857144 0 0 1 -12.83203,12.33789 12.857144,12.857144 0 0 1 -12.83789,-12.33789 h -17.69922 a 12.857144,12.857144 0 0 1 0.002,0.0527 12.857144,12.857144 0 0 1 -12.85742,12.85742 12.857144,12.857144 0 0 1 -12.85742,-12.85742 12.857144,12.857144 0 0 1 0.002,-0.0527 z"
         style="opacity:1;fill:#ffffff;fill-opacity:1;stroke:none;stroke-width:10;stroke-linecap:round;stroke-miterlimit:4;stroke-dasharray:none;stroke-dashoffset:0;stroke-opacity:1"
         inkscape:connector-curvature="0" />
      <text
         id="text1896"
         y="238.94476"
         x="39.568409"
         style="font-style:normal;font-variant:normal;font-weight:normal;font-stretch:normal;font-size:24.19535637px;line-height:1.25;font-family:'Brandon Grotesque';-inkscape-font-specification:'Brandon Grotesque';letter-spacing:0px;word-spacing:0px;fill:#01aaed;fill-opacity:1;stroke:none;stroke-width:1.29617989;"
         xml:space="preserve"><tspan
           style="font-style:normal;font-variant:normal;font-weight:500;font-stretch:normal;font-family:'Brandon Grotesque';-inkscape-font-specification:'Brandon Grotesque Medium';fill:#01aaed;fill-opacity:1;stroke-width:1.29617989;"
           y="238.94476"
           x="39.568409"
           id="tspan1894"
           sodipodi:role="line">FTP</tspan></text>
      <text
         id="text1896-2"
         y="220.48782"
         x="41.381668"
         style="font-style:normal;font-variant:normal;font-weight:normal;font-stretch:normal;font-size:24.19535637px;line-height:1.25;font-family:'Brandon Grotesque';-inkscape-font-specification:'Brandon Grotesque';letter-spacing:0px;word-spacing:0px;fill:#01aaed;fill-opacity:1;stroke:none;stroke-width:1.29617989;"
         xml:space="preserve"><tspan
           style="font-style:normal;font-variant:normal;font-weight:500;font-stretch:normal;font-size:5.37873793px;font-family:'Brandon Grotesque';-inkscape-font-specification:'Brandon Grotesque Medium';fill:#01aaed;fill-opacity:1;stroke-width:1.29617989;"
           y="220.48782"
           x="41.381668"
           id="tspan1894-2"
           sodipodi:role="line">SFTP</tspan></text>
    </g>
  </g>
</svg>
