<?xml version="1.0" encoding="UTF-8" standalone="no"?>
<!-- Created with Inkscape (http://www.inkscape.org/) -->

<svg
   xmlns:dc="http://purl.org/dc/elements/1.1/"
   xmlns:cc="http://creativecommons.org/ns#"
   xmlns:rdf="http://www.w3.org/1999/02/22-rdf-syntax-ns#"
   xmlns:svg="http://www.w3.org/2000/svg"
   xmlns="http://www.w3.org/2000/svg"
   xmlns:sodipodi="http://sodipodi.sourceforge.net/DTD/sodipodi-0.dtd"
   xmlns:inkscape="http://www.inkscape.org/namespaces/inkscape"
   width="512"
   height="512"
   viewBox="0 0 135.46666 135.46667"
   version="1.1"
   id="svg24"
   sodipodi:docname="integra.svg"
   inkscape:version="0.92.3 (2405546, 2018-03-11)">
  <defs
     id="defs18" />
  <sodipodi:namedview
     id="base"
     pagecolor="#ffffff"
     bordercolor="#000000"
     borderopacity="1"
     inkscape:pageopacity="0.0"
     inkscape:pageshadow="2"
     inkscape:zoom="0.98994949"
     inkscape:cx="273.92589"
     inkscape:cy="245.78309"
     inkscape:document-units="px"
     inkscape:current-layer="layer2"
     showgrid="false"
     inkscape:showpageshadow="false"
     borderlayer="true"
     inkscape:window-width="1600"
     inkscape:window-height="847"
     inkscape:window-x="-8"
     inkscape:window-y="-8"
     inkscape:window-maximized="1"
     units="px" />
  <metadata
     id="metadata21">
    <rdf:RDF>
      <cc:Work
         rdf:about="">
        <dc:format>image/svg+xml</dc:format>
        <dc:type
           rdf:resource="http://purl.org/dc/dcmitype/StillImage" />
        <dc:title></dc:title>
      </cc:Work>
    </rdf:RDF>
  </metadata>
  <g
     inkscape:groupmode="layer"
     id="layer2"
     inkscape:label="Camada 2">
    <g
       id="g991"
       transform="matrix(1.844465,0,0,1.844465,-71.086082,-96.435471)">
      <path
         inkscape:connector-curvature="0"
         d="m 107.51175,96.736111 c 0.47588,0.09248 0.79355,0.555508 0.75391,1.084524 l -1.1639,7.776765 -2.44678,16.79677 c -0.0925,0.46288 -0.42339,0.79355 -0.84643,0.79355 H 86.271157 c -0.42339,0 -0.7539,-0.33042 -0.84648,-0.79355 l -2.44678,-16.79677 -1.16385,-7.776765 c -0.04,-0.529016 0.27793,-0.991948 0.75386,-1.084524 h 24.943843 m -9.720923,17.537379 1.34901,-8.67609 h -8.20001 l 1.34905,8.67609 z"
         id="path2"
         style="fill:#ffffff;fill-opacity:1;stroke-width:1.32257974" />
      <path
         inkscape:connector-curvature="0"
         d="m 55.485562,70.643736 5.480657,4.53571 2.330852,-1.52452 v 1.70091 l -7.811509,4.66171 -7.78631,-4.66171 v -1.70091 l 2.343452,1.52452 5.442858,-4.53571 m -5.442858,-15.194618 5.442858,4.523095 5.442857,-4.523095 7.786309,5.039666 -5.379862,4.334142 5.379862,4.30891 -7.786309,5.07747 -5.442857,-4.54828 -5.442858,4.54828 -7.786309,-5.07747 5.379862,-4.30891 -5.379862,-4.334142 7.786309,-5.039666 m 5.442858,14.085908 7.723314,-4.7121 -7.723314,-4.724713 -7.723315,4.724713 z"
         id="path2-5"
         style="fill:#ffffff;fill-opacity:1;stroke-width:1.2599206" />
      <path
         inkscape:connector-curvature="0"
         d="M 95.039818,54.824657 A 13.229158,13.229158 0 0 0 81.810656,68.053814 c 0,5.847286 3.796773,10.808223 9.048744,12.567702 0.66146,0.10585 0.873125,-0.30425 0.873125,-0.66146 0,-0.304249 0,-1.137709 0,-2.235728 -3.664473,0.793749 -4.444998,-1.772704 -4.444998,-1.772704 -0.608539,-1.534584 -1.468434,-1.944689 -1.468434,-1.944689 -1.203854,-0.820209 0.0926,-0.793749 0.0926,-0.793749 1.322915,0.0926 2.024059,1.362604 2.024059,1.362604 1.150939,2.010833 3.095623,1.415519 3.849688,1.098019 0.11905,-0.859894 0.462999,-1.441979 0.833434,-1.772709 -2.936873,-0.3307 -6.019266,-1.468434 -6.019266,-6.508746 0,-1.468434 0.50271,-2.645828 1.362604,-3.585097 -0.1323,-0.33075 -0.595315,-1.706564 0.1323,-3.492498 0,0 1.111249,-0.3572 3.638018,1.349374 1.045104,-0.29105 2.182813,-0.43655 3.307293,-0.43655 1.124479,0 2.262183,0.1455 3.307287,0.43655 2.52677,-1.706559 3.63802,-1.349374 3.63802,-1.349374 0.72761,1.785939 0.2646,3.161768 0.1323,3.492498 0.8599,0.939269 1.36261,2.116663 1.36261,3.585102 0,5.053537 -3.09563,6.164786 -6.045734,6.495516 0.47625,0.4101 0.912814,1.217084 0.912814,2.447394 0,1.772709 0,3.201458 0,3.624792 0,0.3572 0.21165,0.78052 0.88635,0.661455 5.25199,-1.772709 9.03553,-6.720416 9.03553,-12.567702 A 13.229158,13.229158 0 0 0 95.039833,54.824657 Z"
         id="path2-0"
         style="fill:#ffffff;fill-opacity:1;stroke-width:1.32291579" />
      <path
         style="fill:#ffffff;stroke-width:1.32339013"
         inkscape:connector-curvature="0"
         d="m 43.786783,107.04054 11.698771,15.21898 -12.810419,-9.52841 c -0.357328,-0.2779 -0.502885,-0.72786 -0.370533,-1.13811 l 1.482196,-4.55246 M 47.6908,98.001784 c -0.145552,-0.449961 -0.807269,-0.449961 -0.979311,0 l -2.924691,9.038756 h 6.828693 L 47.6908,98.001784 m 2.924691,9.038756 4.870078,15.21898 4.870078,-15.21898 h -9.740156 m 18.051045,4.55246 -1.482196,-4.55246 -11.698771,15.21898 12.810419,-9.52841 c 0.357328,-0.2779 0.502885,-0.72786 0.370533,-1.13811 M 64.259629,98.001784 c -0.172062,-0.449961 -0.833733,-0.449961 -0.979306,0 l -2.924691,9.038756 h 6.828693 z"
         id="path976" />
    </g>
  </g>
</svg>
