<?xml version="1.0" encoding="UTF-8" standalone="no"?>
<!-- Created with Inkscape (http://www.inkscape.org/) -->

<svg
   xmlns:dc="http://purl.org/dc/elements/1.1/"
   xmlns:cc="http://creativecommons.org/ns#"
   xmlns:rdf="http://www.w3.org/1999/02/22-rdf-syntax-ns#"
   xmlns:svg="http://www.w3.org/2000/svg"
   xmlns="http://www.w3.org/2000/svg"
   xmlns:sodipodi="http://sodipodi.sourceforge.net/DTD/sodipodi-0.dtd"
   xmlns:inkscape="http://www.inkscape.org/namespaces/inkscape"
   width="339.05914"
   height="70.263161"
   viewBox="0 0 89.709396 18.590462"
   version="1.1"
   id="svg8"
   sodipodi:docname="logo-horizontal-cinza.svg"
   inkscape:version="0.92.3 (2405546, 2018-03-11)"
   inkscape:export-filename="C:\Users\Jarvis\Dropbox\Devmind\Peças Gráficas\Logotipo\logo-horizontal.png"
   inkscape:export-xdpi="96"
   inkscape:export-ydpi="96">
  <defs
     id="defs2">
    <style
       id="style25">.cls-1{fill:#01aaed;}.cls-2{fill:#fff;}</style>
  </defs>
  <sodipodi:namedview
     id="base"
     pagecolor="#ffffff"
     bordercolor="#666666"
     borderopacity="1.0"
     inkscape:pageopacity="0.0"
     inkscape:pageshadow="2"
     inkscape:zoom="1"
     inkscape:cx="197.91463"
     inkscape:cy="42.131542"
     inkscape:document-units="px"
     inkscape:current-layer="layer1"
     showgrid="false"
     units="px"
     inkscape:showpageshadow="false"
     borderlayer="true"
     inkscape:window-width="1600"
     inkscape:window-height="847"
     inkscape:window-x="-8"
     inkscape:window-y="-8"
     inkscape:window-maximized="1"
     fit-margin-top="0"
     fit-margin-left="0"
     fit-margin-right="0"
     fit-margin-bottom="0" />
  <metadata
     id="metadata5">
    <rdf:RDF>
      <cc:Work
         rdf:about="">
        <dc:format>image/svg+xml</dc:format>
        <dc:type
           rdf:resource="http://purl.org/dc/dcmitype/StillImage" />
        <dc:title></dc:title>
      </cc:Work>
    </rdf:RDF>
  </metadata>
  <g
     inkscape:label="Camada 1"
     inkscape:groupmode="layer"
     id="layer1"
     transform="translate(-0.12446851,-270.77142)">
    <g
       id="g53"
       transform="matrix(1.1042144,0,0,1.1042144,-4.4205154,-25.697783)"
       style="fill:#999999;fill-opacity:1">
      <g
         transform="matrix(0.04431444,0,0,0.04431444,-4.3577733,266.5133)"
         id="g43"
         style="fill:#999999;fill-opacity:1">
        <path
           style="fill:#999999;fill-opacity:1"
           inkscape:connector-curvature="0"
           class="cls-2"
           d="m 309.06,359.70927 -88.51,61.41 a 4.66,4.66 0 0 1 -0.68,0.4 c -3,1.48 -23.24,10.44 -28.49,-12.28 a 5.38,5.38 0 0 1 -0.13,-1.2 v -67.21 a 5.22,5.22 0 0 1 0.6,-2.45 c 1.27,-2.46 5.15,-6.52 15.71,-13.08 11.85,-7.36 96,-66.13 119.15,-82.74 a 5.3,5.3 0 0 0 0,-8.58 l -40.06,-29.37 a 5.3,5.3 0 0 0 -8.43,4.27 v 53 c 0,0 0,12.69 -14.5,14.5 -14.5,1.81 -59.81,0 -59.81,0 0,0 -12.69,0 -12.69,-14.5 V 61.399266 a 5.31,5.31 0 0 1 0.24,-1.58 c 1.46,-4.58 10,-26.15 36,-8.24 29,19.94 222.94,163.130004 222.94,163.130004 0,0 32.46,23.44 3.84,46.94 a 4.59,4.59 0 0 1 -0.44,0.33 z"
           id="path33" />
      </g>
      <g
         aria-label="Devmind.io"
         style="font-style:normal;font-weight:normal;font-size:14.26673317px;line-height:1.25;font-family:sans-serif;letter-spacing:0px;word-spacing:0px;fill:#999999;fill-opacity:1;stroke:none;stroke-width:0.35666832"
         id="text47">
        <path
           d="m 20.942908,281.55773 c 0,0.14267 0.114134,0.27107 0.256801,0.27107 h 3.481083 c 2.75348,0 5.007624,-2.23988 5.007624,-5.00763 0,-2.73921 -2.254144,-4.97909 -5.007624,-4.97909 h -3.481083 c -0.142667,0 -0.256801,0.1284 -0.256801,0.27107 z m 2.225611,-1.84041 v -5.77803 h 1.369606 c 1.612141,0 2.782013,1.26974 2.782013,2.88188 0,1.62641 -1.169872,2.89615 -2.782013,2.89615 z"
           style="font-style:normal;font-variant:normal;font-weight:500;font-stretch:normal;font-family:'Brandon Grotesque';-inkscape-font-specification:'Brandon Grotesque Medium';fill:#999999;fill-opacity:1;stroke-width:0.35666832"
           id="path95"
           inkscape:connector-curvature="0" />
        <path
           d="m 30.312585,278.97545 c 0,1.64067 1.284006,2.99601 2.981747,2.99601 0.898804,0 1.612141,-0.31386 2.111477,-0.8132 0.1284,-0.1284 0.09987,-0.2996 0.01427,-0.41374 l -0.713336,-0.856 c -0.0856,-0.0999 -0.228268,-0.0999 -0.356669,0 -0.228267,0.1712 -0.642003,0.3424 -0.998671,0.3424 -0.74187,0 -1.055738,-0.5564 -1.098538,-0.9416 h 3.424016 c 0.1284,0 0.256801,-0.0999 0.271068,-0.24254 0.01427,-0.0999 0.02853,-0.28533 0.02853,-0.3852 0,-1.56934 -1.255472,-2.68214 -2.710679,-2.68214 -1.683475,0 -2.953214,1.38387 -2.953214,2.99601 z m 2.125743,-0.79894 c 0.05707,-0.37093 0.385202,-0.67053 0.770404,-0.67053 0.370935,0 0.727603,0.2996 0.756137,0.67053 z"
           style="font-style:normal;font-variant:normal;font-weight:500;font-stretch:normal;font-family:'Brandon Grotesque';-inkscape-font-specification:'Brandon Grotesque Medium';fill:#999999;fill-opacity:1;stroke-width:0.35666832"
           id="path97"
           inkscape:connector-curvature="0" />
        <path
           d="m 38.978957,281.8288 c 0.0428,0.0713 0.156934,0.14266 0.242534,0.14266 h 0.07133 c 0.0856,0 0.199734,-0.0713 0.242535,-0.14266 l 2.710679,-5.3215 c 0.09987,-0.18546 -0.02853,-0.3852 -0.242535,-0.3852 h -1.44094 c -0.199734,0 -0.299601,-0.0143 -0.385201,0.15694 l -0.898805,1.94027 c -0.01427,0 -0.02853,0 -0.0428,0 l -0.841737,-1.94027 c -0.0428,-0.0856 -0.156934,-0.15694 -0.256801,-0.15694 h -1.597874 c -0.214001,0 -0.342402,0.19974 -0.242535,0.3852 z"
           style="font-style:normal;font-variant:normal;font-weight:500;font-stretch:normal;font-family:'Brandon Grotesque';-inkscape-font-specification:'Brandon Grotesque Medium';fill:#999999;fill-opacity:1;stroke-width:0.35666832"
           id="path99"
           inkscape:connector-curvature="0" />
        <path
           d="m 43.084655,281.55773 c 0,0.14267 0.114133,0.27107 0.271067,0.27107 h 1.498007 c 0.142668,0 0.271068,-0.1284 0.271068,-0.27107 v -2.73921 c 0,-0.58494 0.428002,-0.99868 0.998672,-0.99868 0.642003,0 0.898804,0.49934 0.898804,1.07001 v 2.66788 c 0,0.14267 0.114134,0.27107 0.271068,0.27107 h 1.369606 c 0.156934,0 0.271068,-0.1284 0.271068,-0.27107 v -2.76775 c 0,-0.5564 0.456536,-0.97014 0.955871,-0.97014 0.65627,0 0.955871,0.49934 0.955871,1.07001 v 2.66788 c 0,0.14267 0.114134,0.27107 0.271068,0.27107 h 1.512274 c 0.156934,0 0.271068,-0.1284 0.271068,-0.27107 v -2.58228 c 0,-1.62641 -0.870271,-2.99601 -2.639346,-2.99601 -0.970138,0 -1.640674,0.54213 -1.968809,0.87027 -0.513602,-0.57067 -1.070005,-0.87027 -1.868942,-0.87027 -0.913071,0 -1.569341,0.5136 -1.926009,0.88453 l -0.242534,-0.58493 c -0.0428,-0.0856 -0.142668,-0.15694 -0.242535,-0.15694 h -0.65627 c -0.156934,0 -0.271067,0.11414 -0.271067,0.27107 z"
           style="font-style:normal;font-variant:normal;font-weight:500;font-stretch:normal;font-family:'Brandon Grotesque';-inkscape-font-specification:'Brandon Grotesque Medium';fill:#999999;fill-opacity:1;stroke-width:0.35666832"
           id="path101"
           inkscape:connector-curvature="0" />
        <path
           d="m 55.32774,274.39583 c 0.627737,0 1.141339,-0.49934 1.141339,-1.12707 0,-0.62774 -0.513602,-1.14134 -1.141339,-1.14134 -0.627736,0 -1.127071,0.5136 -1.127071,1.14134 0,0.62773 0.499335,1.12707 1.127071,1.12707 z m -1.041471,7.1619 c 0,0.14267 0.128401,0.27107 0.271068,0.27107 h 1.56934 c 0.142668,0 0.271068,-0.1284 0.271068,-0.27107 v -5.16456 c 0,-0.15693 -0.1284,-0.27107 -0.271068,-0.27107 h -1.56934 c -0.142667,0 -0.271068,0.11414 -0.271068,0.27107 z"
           style="font-style:normal;font-variant:normal;font-weight:500;font-stretch:normal;font-family:'Brandon Grotesque';-inkscape-font-specification:'Brandon Grotesque Medium';fill:#999999;fill-opacity:1;stroke-width:0.35666832"
           id="path103"
           inkscape:connector-curvature="0" />
        <path
           d="m 57.936545,281.55773 c 0,0.14267 0.128401,0.27107 0.271068,0.27107 h 1.498007 c 0.199734,0 0.256801,-0.14267 0.256801,-0.27107 v -2.73921 c 0,-0.58494 0.513603,-0.99868 1.084272,-0.99868 0.642003,0 0.970138,0.49934 0.970138,1.07001 v 2.66788 c 0,0.14267 0.114134,0.27107 0.271068,0.27107 h 1.52654 c 0.142667,0 0.271068,-0.1284 0.271068,-0.27107 v -2.59655 c 0,-1.6264 -0.941604,-2.98174 -2.710679,-2.98174 -1.041472,0 -1.697741,0.54213 -2.01161,0.88453 l -0.228267,-0.57067 c -0.0428,-0.0999 -0.171201,-0.1712 -0.256802,-0.1712 h -0.670536 c -0.142667,0 -0.271068,0.11414 -0.271068,0.27107 z"
           style="font-style:normal;font-variant:normal;font-weight:500;font-stretch:normal;font-family:'Brandon Grotesque';-inkscape-font-specification:'Brandon Grotesque Medium';fill:#999999;fill-opacity:1;stroke-width:0.35666832"
           id="path105"
           inkscape:connector-curvature="0" />
        <path
           d="m 65.046285,278.97545 c 0,1.64067 1.212673,2.99601 2.824814,2.99601 1.255472,0 1.911742,-0.8988 1.911742,-0.8988 l 0.171201,0.4708 c 0.05707,0.15694 0.156934,0.28534 0.299601,0.28534 h 0.670537 c 0.142667,0 0.271067,-0.1284 0.271067,-0.27107 v -9.44458 c 0,-0.14267 -0.1284,-0.27107 -0.271067,-0.27107 h -1.583608 c -0.142667,0 -0.271068,0.1284 -0.271068,0.27107 v 4.13735 c -0.171201,-0.0999 -0.69907,-0.27106 -1.184139,-0.27106 -1.52654,0 -2.83908,0.9844 -2.83908,2.99601 z m 1.954543,-0.0143 c 0,-0.642 0.499336,-1.14134 1.155605,-1.14134 0.65627,0 1.141339,0.49934 1.141339,1.14134 0,0.65627 -0.485069,1.16988 -1.141339,1.16988 -0.656269,0 -1.155605,-0.51361 -1.155605,-1.16988 z"
           style="font-style:normal;font-variant:normal;font-weight:500;font-stretch:normal;font-family:'Brandon Grotesque';-inkscape-font-specification:'Brandon Grotesque Medium';fill:#999999;fill-opacity:1;stroke-width:0.35666832"
           id="path107"
           inkscape:connector-curvature="0" />
        <path
           d="m 72.347509,280.63039 c 0,0.7276 0.613469,1.34107 1.341073,1.34107 0.74187,0 1.369606,-0.61347 1.369606,-1.34107 0,-0.74187 -0.627736,-1.36961 -1.369606,-1.36961 -0.727604,0 -1.341073,0.62774 -1.341073,1.36961 z"
           style="font-style:normal;font-variant:normal;font-weight:500;font-stretch:normal;font-family:'Brandon Grotesque';-inkscape-font-specification:'Brandon Grotesque Medium';fill:#999999;fill-opacity:1;stroke-width:0.35666832"
           id="path109"
           inkscape:connector-curvature="0" />
        <path
           d="m 77.257272,274.39583 c 0.627736,0 1.141338,-0.49934 1.141338,-1.12707 0,-0.62774 -0.513602,-1.14134 -1.141338,-1.14134 -0.627737,0 -1.127072,0.5136 -1.127072,1.14134 0,0.62773 0.499335,1.12707 1.127072,1.12707 z m -1.041472,7.1619 c 0,0.14267 0.128401,0.27107 0.271068,0.27107 h 1.569341 c 0.142667,0 0.271068,-0.1284 0.271068,-0.27107 v -5.16456 c 0,-0.15693 -0.128401,-0.27107 -0.271068,-0.27107 h -1.569341 c -0.142667,0 -0.271068,0.11414 -0.271068,0.27107 z"
           style="font-style:normal;font-variant:normal;font-weight:500;font-stretch:normal;font-family:'Brandon Grotesque';-inkscape-font-specification:'Brandon Grotesque Medium';fill:#999999;fill-opacity:1;stroke-width:0.35666832"
           id="path111"
           inkscape:connector-curvature="0" />
        <path
           d="m 79.423807,278.96118 c 0,1.64068 1.341073,3.01028 2.967481,3.01028 1.626408,0 2.96748,-1.3696 2.96748,-3.01028 0,-1.61214 -1.341072,-2.98174 -2.96748,-2.98174 -1.626408,0 -2.967481,1.3696 -2.967481,2.98174 z m 1.840409,0 c 0,-0.62773 0.499336,-1.14134 1.127072,-1.14134 0.627736,0 1.127072,0.51361 1.127072,1.14134 0,0.64201 -0.499336,1.16988 -1.127072,1.16988 -0.627736,0 -1.127072,-0.52787 -1.127072,-1.16988 z"
           style="font-style:normal;font-variant:normal;font-weight:500;font-stretch:normal;font-family:'Brandon Grotesque';-inkscape-font-specification:'Brandon Grotesque Medium';fill:#999999;fill-opacity:1;stroke-width:0.35666832"
           id="path113"
           inkscape:connector-curvature="0" />
      </g>
    </g>
  </g>
</svg>
