<?xml version="1.0" encoding="UTF-8" standalone="no"?>
<svg
   xmlns:dc="http://purl.org/dc/elements/1.1/"
   xmlns:cc="http://creativecommons.org/ns#"
   xmlns:rdf="http://www.w3.org/1999/02/22-rdf-syntax-ns#"
   xmlns:svg="http://www.w3.org/2000/svg"
   xmlns="http://www.w3.org/2000/svg"
   xmlns:sodipodi="http://sodipodi.sourceforge.net/DTD/sodipodi-0.dtd"
   xmlns:inkscape="http://www.inkscape.org/namespaces/inkscape"
   version="1.1"
   width="785"
   height="311.70599"
   viewBox="0 0 785 311.70599"
   enable-background="new 0 0 1024.00 768.00"
   xml:space="preserve"
   id="svg20"
   sodipodi:docname="PWA.svg"
   inkscape:version="0.92.3 (2405546, 2018-03-11)"><metadata
   id="metadata26"><rdf:RDF><cc:Work
       rdf:about=""><dc:format>image/svg+xml</dc:format><dc:type
         rdf:resource="http://purl.org/dc/dcmitype/StillImage" /><dc:title></dc:title></cc:Work></rdf:RDF></metadata><defs
   id="defs24" /><sodipodi:namedview
   pagecolor="#ffffff"
   bordercolor="#666666"
   borderopacity="1"
   objecttolerance="10"
   gridtolerance="10"
   guidetolerance="10"
   inkscape:pageopacity="0"
   inkscape:pageshadow="2"
   inkscape:window-width="1600"
   inkscape:window-height="847"
   id="namedview22"
   showgrid="false"
   fit-margin-top="0"
   fit-margin-left="0"
   fit-margin-right="0"
   fit-margin-bottom="0"
   inkscape:zoom="0.30729167"
   inkscape:cx="392.5"
   inkscape:cy="155.853"
   inkscape:window-x="-8"
   inkscape:window-y="-8"
   inkscape:window-maximized="1"
   inkscape:current-layer="svg20" />
	
	<g
   id="g18"
   transform="translate(-119.5,-228.147)">
		
		<g
   id="g16">
			<path
   d="m 697.24,486.918 22.678,-57.346 h 65.478 L 754.319,342.58 793.185,244.299 904.5,539.853 h -82.091 l -19.024,-52.935 z"
   id="path10"
   inkscape:connector-curvature="0"
   style="fill:#ffffff;fill-opacity:1;stroke-linejoin:round" />
			<path
   d="M 627.205,523.702 746.37,228.147 H 667.367 L 585.85,419.141 527.883,228.148 h -60.724 l -62.24,190.993 -43.893,-87.032 -39.722,122.376 40.329,69.217 h 77.749 l 56.243,-171.281 53.625,171.281 z"
   id="path12"
   inkscape:connector-curvature="0"
   style="fill:#ffffff;fill-opacity:1;stroke-linejoin:round" />
			<path
   d="m 194.491,422.243 h 48.662 c 14.74,0 27.866,-1.645 39.378,-4.935 l 12.584,-38.771 35.172,-108.358 c -2.68,-4.248 -5.74,-8.264 -9.179,-12.048 -18.058,-19.989 -44.48,-29.983 -79.265,-29.983 H 119.5 v 295.554 h 74.991 z m 64.411,-126.1 c 7.054,7.099 10.581,16.599 10.581,28.501 0,11.993 -3.102,21.504 -9.305,28.535 -6.801,7.812 -19.323,11.717 -37.565,11.717 h -28.122 v -79.402 h 28.329 c 17.001,0 29.029,3.549 36.082,10.649 z"
   id="path14"
   inkscape:connector-curvature="0"
   style="fill:#ffffff;fill-opacity:1;stroke-linejoin:round" />
		</g>
	</g>
</svg>