<?xml version="1.0" encoding="UTF-8" standalone="no"?>
<!-- Created with Inkscape (http://www.inkscape.org/) -->

<svg
   xmlns:dc="http://purl.org/dc/elements/1.1/"
   xmlns:cc="http://creativecommons.org/ns#"
   xmlns:rdf="http://www.w3.org/1999/02/22-rdf-syntax-ns#"
   xmlns:svg="http://www.w3.org/2000/svg"
   xmlns="http://www.w3.org/2000/svg"
   xmlns:sodipodi="http://sodipodi.sourceforge.net/DTD/sodipodi-0.dtd"
   xmlns:inkscape="http://www.inkscape.org/namespaces/inkscape"
   width="512"
   height="512"
   viewBox="0 0 135.46666 135.46667"
   version="1.1"
   id="svg24"
   sodipodi:docname="responsivo.svg"
   inkscape:version="0.92.3 (2405546, 2018-03-11)">
  <defs
     id="defs18">
    <style
       id="style3743">.cls-1{fill:#01aaed;}.cls-2{fill:#fff;}</style>
  </defs>
  <sodipodi:namedview
     id="base"
     pagecolor="#ffffff"
     bordercolor="#000000"
     borderopacity="1"
     inkscape:pageopacity="0.0"
     inkscape:pageshadow="2"
     inkscape:zoom="1.4142136"
     inkscape:cx="234.6553"
     inkscape:cy="259.07986"
     inkscape:document-units="px"
     inkscape:current-layer="layer1"
     showgrid="false"
     inkscape:showpageshadow="false"
     borderlayer="true"
     inkscape:window-width="1600"
     inkscape:window-height="847"
     inkscape:window-x="-8"
     inkscape:window-y="-8"
     inkscape:window-maximized="1"
     units="px" />
  <metadata
     id="metadata21">
    <rdf:RDF>
      <cc:Work
         rdf:about="">
        <dc:format>image/svg+xml</dc:format>
        <dc:type
           rdf:resource="http://purl.org/dc/dcmitype/StillImage" />
        <dc:title></dc:title>
      </cc:Work>
    </rdf:RDF>
  </metadata>
  <g
     inkscape:label="Camada 1"
     inkscape:groupmode="layer"
     id="layer1"
     transform="translate(0,-161.53332)">
    <g
       id="g1636"
       transform="translate(1.7633886,16.248795)">
      <rect
         transform="rotate(90)"
         ry="0"
         rx="0"
         y="-113.66736"
         x="167.89606"
         height="90.225464"
         width="62.463787"
         id="rect1381-0-7"
         style="opacity:1;fill:#ffffff;fill-opacity:1;stroke:none;stroke-width:1.42848051;stroke-linecap:round;stroke-miterlimit:4;stroke-dasharray:none;stroke-dashoffset:0;stroke-opacity:1" />
      <path
         sodipodi:nodetypes="ccccc"
         inkscape:connector-curvature="0"
         id="rect1381-0-7-6"
         d="m 76.223033,231.80876 2.645833,7.08554 H 58.240387 l 2.645833,-7.08554 z"
         style="opacity:1;fill:#ffffff;fill-opacity:1;stroke:none;stroke-width:0.3864437;stroke-linecap:round;stroke-miterlimit:4;stroke-dasharray:none;stroke-dashoffset:0;stroke-opacity:1" />
      <rect
         transform="rotate(90)"
         ry="0"
         rx="0"
         y="-110.92339"
         x="170.56567"
         height="84.737534"
         width="54.131145"
         id="rect1381-0-7-3"
         style="opacity:1;fill:#01aaed;fill-opacity:1;stroke:none;stroke-width:1.28871572;stroke-linecap:round;stroke-miterlimit:4;stroke-dasharray:none;stroke-dashoffset:0;stroke-opacity:1" />
      <path
         inkscape:connector-curvature="0"
         class="cls-2"
         d="m 66.993809,207.61511 -7.059791,4.89822 a 0.37169373,0.37169373 0 0 1 -0.05424,0.032 c -0.239288,0.11799 -1.853683,0.83272 -2.272435,-0.97948 a 0.42912276,0.42912276 0 0 1 -0.01032,-0.0958 v -5.36084 a 0.41636078,0.41636078 0 0 1 0.04786,-0.19542 c 0.101293,-0.19622 0.410776,-0.52006 1.253069,-1.0433 0.945187,-0.58705 7.657208,-5.27469 9.503716,-6.59955 a 0.42274178,0.42274178 0 0 0 0,-0.68437 l -3.195295,-2.34262 a 0.42274178,0.42274178 0 0 0 -0.672395,0.34058 v 4.22742 c 0,0 0,1.01218 -1.156558,1.15656 -1.156559,0.14437 -4.770602,0 -4.770602,0 0,0 -1.012186,0 -1.012186,-1.15656 v -15.9908 a 0.42353943,0.42353943 0 0 1 0.01914,-0.12603 c 0.116448,-0.3653 0.797625,-2.08579 2.871453,-0.65723 2.31311,1.59046 17.78227,13.01168 17.78227,13.01168 0,0 2.589096,1.86962 0.306289,3.74404 a 0.36611033,0.36611033 0 0 1 -0.03507,0.0262 z"
         id="path3751-7"
         style="fill:#ffffff;stroke-width:0.0797626" />
    </g>
    <g
       id="g1449"
       transform="translate(-28.919152,-9.3823521)">
      <rect
         transform="rotate(90)"
         ry="3.9223826"
         rx="3.9223826"
         y="-96.081543"
         x="242.58578"
         height="59.489471"
         width="41.18502"
         id="rect1381-0"
         style="opacity:1;fill:#ffffff;fill-opacity:1;stroke:none;stroke-width:0.9418577;stroke-linecap:round;stroke-miterlimit:4;stroke-dasharray:none;stroke-dashoffset:0;stroke-opacity:1" />
      <path
         sodipodi:nodetypes="ccccc"
         inkscape:connector-curvature="0"
         id="rect1381-0-3"
         d="M 90.228479,280.75667 H 39.799308 v -35.15674 h 50.429171 z"
         style="opacity:1;fill:#01aaed;fill-opacity:1;stroke:none;stroke-width:0.84030163;stroke-linecap:round;stroke-miterlimit:4;stroke-dasharray:none;stroke-dashoffset:0;stroke-opacity:1" />
      <circle
         r="1.403165"
         cy="263.17828"
         cx="93.012413"
         id="path1429"
         style="opacity:1;fill:#01aaed;fill-opacity:1;stroke:none;stroke-width:0.59531248;stroke-linecap:round;stroke-miterlimit:4;stroke-dasharray:none;stroke-dashoffset:0;stroke-opacity:1" />
      <path
         style="fill:#ffffff;stroke-width:0.05563291"
         id="path3751"
         d="m 63.925254,270.14187 -4.924071,3.41641 a 0.25924938,0.25924938 0 0 1 -0.03783,0.0223 c -0.166899,0.0823 -1.292909,0.58081 -1.584981,-0.68317 a 0.29930505,0.29930505 0 0 1 -0.0072,-0.0668 v -3.73909 a 0.29040381,0.29040381 0 0 1 0.03338,-0.1363 c 0.07065,-0.13686 0.286509,-0.36273 0.873992,-0.72768 0.65925,-0.40946 5.340759,-3.679 6.628663,-4.60306 a 0.29485444,0.29485444 0 0 0 0,-0.47734 l -2.228658,-1.63393 a 0.29485444,0.29485444 0 0 0 -0.468983,0.23755 v 2.94854 c 0,0 0,0.70598 -0.806677,0.80668 -0.806678,0.1007 -3.327405,0 -3.327405,0 0,0 -0.705981,0 -0.705981,-0.80668 v -11.15328 a 0.29541078,0.29541078 0 0 1 0.01335,-0.0879 c 0.08122,-0.25479 0.556328,-1.4548 2.002784,-0.45841 1.613351,1.10932 12.402799,9.0754 12.402799,9.0754 0,0 1.805846,1.30403 0.213631,2.6114 a 0.25535507,0.25535507 0 0 1 -0.02446,0.0183 z"
         class="cls-2"
         inkscape:connector-curvature="0" />
    </g>
    <g
       id="g1630"
       transform="translate(1.7633886,-10.317796)">
      <rect
         ry="2.1136608"
         rx="2.1136608"
         y="244.13649"
         x="102.21786"
         height="40.569759"
         width="23.8125"
         id="rect1381"
         style="opacity:1;fill:#ffffff;fill-opacity:1;stroke:none;stroke-width:0.59142452;stroke-linecap:round;stroke-miterlimit:4;stroke-dasharray:none;stroke-dashoffset:0;stroke-opacity:1" />
      <rect
         transform="rotate(90)"
         ry="0"
         rx="0"
         y="-124.90783"
         x="248.15613"
         height="21.567444"
         width="31.680508"
         id="rect1381-0-7-3-9"
         style="opacity:1;fill:#01aaed;fill-opacity:1;stroke:none;stroke-width:0.49738306;stroke-linecap:round;stroke-miterlimit:4;stroke-dasharray:none;stroke-dashoffset:0;stroke-opacity:1" />
      <path
         inkscape:connector-curvature="0"
         class="cls-2"
         d="m 113.4555,268.27096 -3.02265,2.09717 a 0.15914058,0.15914058 0 0 1 -0.0232,0.0137 c -0.10245,0.0505 -0.79366,0.35652 -0.97295,-0.41937 a 0.18372881,0.18372881 0 0 1 -0.004,-0.041 v -2.29524 a 0.17826476,0.17826476 0 0 1 0.0205,-0.0837 c 0.0433,-0.084 0.17587,-0.22266 0.53649,-0.44669 0.40469,-0.25134 3.27844,-2.25836 4.06902,-2.82559 a 0.18099678,0.18099678 0 0 0 0,-0.29302 l -1.36806,-1.00299 a 0.18099678,0.18099678 0 0 0 -0.28789,0.14582 v 1.80996 c 0,0 0,0.43337 -0.49518,0.49519 -0.49518,0.0618 -2.04253,0 -2.04253,0 0,0 -0.43337,0 -0.43337,-0.49519 v -6.84645 a 0.18133831,0.18133831 0 0 1 0.008,-0.054 c 0.0499,-0.15641 0.34151,-0.89303 1.22941,-0.2814 0.99036,0.68096 7.61348,5.57095 7.61348,5.57095 0,0 1.10852,0.80048 0.13114,1.60301 a 0.15675005,0.15675005 0 0 1 -0.015,0.0112 z"
         id="path3751-7-5"
         style="fill:#ffffff;stroke-width:0.03415034" />
    </g>
  </g>
</svg>
